<svg width="703" height="250" viewBox="0 0 703 250" fill="none" xmlns="http://www.w3.org/2000/svg">
<path d="M72.3911 42.3589H55.0425L54.9497 32.8032H69.5151C72.0819 32.8032 74.1847 32.4785 75.8237 31.8291C77.4627 31.1488 78.6842 30.1746 79.4883 28.9067C80.3232 27.6079 80.7407 26.0308 80.7407 24.1753C80.7407 22.0724 80.3387 20.3716 79.5347 19.0728C78.7616 17.7739 77.54 16.8307 75.8701 16.2432C74.2311 15.6556 72.1128 15.3618 69.5151 15.3618H59.8667V72H45.9507V4.46094H69.5151C73.4425 4.46094 76.9525 4.83203 80.0449 5.57422C83.1683 6.31641 85.8123 7.44515 87.9771 8.96045C90.1418 10.4757 91.7962 12.3931 92.9404 14.7124C94.0846 17.0008 94.6567 19.7222 94.6567 22.8765C94.6567 25.6597 94.0228 28.2264 92.7549 30.5767C91.5179 32.9269 89.5542 34.8442 86.8638 36.3286C84.2043 37.813 80.7253 38.6325 76.4268 38.7871L72.3911 42.3589ZM71.7881 72H51.2388L56.666 61.1455H71.7881C74.2311 61.1455 76.2257 60.759 77.772 59.9858C79.3182 59.1818 80.4624 58.0994 81.2046 56.7388C81.9468 55.3781 82.3179 53.8164 82.3179 52.0537C82.3179 50.0745 81.9777 48.3582 81.2974 46.9048C80.6479 45.4513 79.5965 44.3381 78.1431 43.5649C76.6896 42.7609 74.7723 42.3589 72.3911 42.3589H58.9854L59.0781 32.8032H75.7773L78.978 36.5605C83.091 36.4987 86.3999 37.2254 88.9048 38.7407C91.4406 40.2251 93.2806 42.1579 94.4248 44.5391C95.5999 46.9202 96.1875 49.4715 96.1875 52.1929C96.1875 56.5223 95.2443 60.1714 93.3579 63.1401C91.4715 66.078 88.7038 68.2891 85.0547 69.7734C81.4365 71.2578 77.0143 72 71.7881 72ZM119.891 21.8096V72H106.485V21.8096H119.891ZM105.65 8.72852C105.65 6.78027 106.331 5.1722 107.691 3.9043C109.052 2.63639 110.877 2.00244 113.165 2.00244C115.423 2.00244 117.232 2.63639 118.592 3.9043C119.984 5.1722 120.68 6.78027 120.68 8.72852C120.68 10.6768 119.984 12.2848 118.592 13.5527C117.232 14.8206 115.423 15.4546 113.165 15.4546C110.877 15.4546 109.052 14.8206 107.691 13.5527C106.331 12.2848 105.65 10.6768 105.65 8.72852ZM154.032 72.9277C150.135 72.9277 146.641 72.3092 143.548 71.0723C140.456 69.8044 137.827 68.0571 135.663 65.8306C133.529 63.604 131.89 61.0218 130.746 58.084C129.601 55.1152 129.029 51.9609 129.029 48.6211V46.7656C129.029 42.9619 129.57 39.4829 130.653 36.3286C131.735 33.1743 133.281 30.4375 135.292 28.1182C137.333 25.7988 139.806 24.0207 142.713 22.7837C145.62 21.5158 148.898 20.8818 152.547 20.8818C156.104 20.8818 159.258 21.4694 162.01 22.6445C164.763 23.8197 167.066 25.4896 168.922 27.6543C170.808 29.819 172.231 32.4167 173.189 35.4473C174.148 38.4469 174.627 41.7868 174.627 45.4668V51.0332H134.735V42.127H161.5V41.1064C161.5 39.251 161.16 37.5965 160.479 36.1431C159.83 34.6587 158.84 33.4836 157.511 32.6177C156.181 31.7518 154.48 31.3188 152.408 31.3188C150.646 31.3188 149.13 31.7054 147.862 32.4785C146.594 33.2516 145.558 34.334 144.754 35.7256C143.981 37.1172 143.394 38.7562 142.992 40.6426C142.621 42.498 142.435 44.5391 142.435 46.7656V48.6211C142.435 50.6312 142.713 52.4867 143.27 54.1875C143.858 55.8883 144.677 57.3573 145.729 58.5942C146.811 59.8312 148.11 60.7899 149.625 61.4702C151.171 62.1506 152.918 62.4907 154.867 62.4907C157.279 62.4907 159.521 62.0269 161.593 61.0991C163.696 60.1405 165.505 58.7025 167.02 56.7852L173.514 63.8359C172.463 65.3512 171.025 66.8047 169.2 68.1963C167.407 69.5879 165.242 70.7321 162.706 71.6289C160.17 72.4948 157.279 72.9277 154.032 72.9277ZM195.316 32.5249V72H181.957V21.8096H194.481L195.316 32.5249ZM193.368 45.1421H189.75C189.75 41.4312 190.229 38.0913 191.188 35.1226C192.146 32.1229 193.491 29.5716 195.223 27.4688C196.955 25.335 199.011 23.7114 201.393 22.5981C203.805 21.4539 206.495 20.8818 209.464 20.8818C211.814 20.8818 213.963 21.222 215.912 21.9023C217.86 22.5827 219.53 23.665 220.921 25.1494C222.344 26.6338 223.426 28.5975 224.168 31.0405C224.942 33.4836 225.328 36.4678 225.328 39.9932V72H211.876V39.9468C211.876 37.7202 211.567 35.9884 210.948 34.7515C210.33 33.5145 209.417 32.6486 208.211 32.1538C207.036 31.6281 205.583 31.3652 203.851 31.3652C202.057 31.3652 200.496 31.7209 199.166 32.4321C197.867 33.1434 196.785 34.133 195.919 35.4009C195.084 36.6379 194.45 38.0913 194.017 39.7612C193.584 41.4312 193.368 43.2248 193.368 45.1421ZM252.557 62.2588L263.69 21.8096H277.652L260.721 72H252.279L252.557 62.2588ZM244.903 21.8096L256.083 62.3052L256.314 72H247.826L230.895 21.8096H244.903ZM306.087 72.9277C302.191 72.9277 298.696 72.3092 295.604 71.0723C292.512 69.8044 289.883 68.0571 287.718 65.8306C285.584 63.604 283.945 61.0218 282.801 58.084C281.657 55.1152 281.085 51.9609 281.085 48.6211V46.7656C281.085 42.9619 281.626 39.4829 282.708 36.3286C283.791 33.1743 285.337 30.4375 287.347 28.1182C289.388 25.7988 291.862 24.0207 294.769 22.7837C297.676 21.5158 300.954 20.8818 304.603 20.8818C308.159 20.8818 311.314 21.4694 314.066 22.6445C316.818 23.8197 319.122 25.4896 320.978 27.6543C322.864 29.819 324.286 32.4167 325.245 35.4473C326.204 38.4469 326.683 41.7868 326.683 45.4668V51.0332H286.791V42.127H313.556V41.1064C313.556 39.251 313.215 37.5965 312.535 36.1431C311.886 34.6587 310.896 33.4836 309.566 32.6177C308.237 31.7518 306.536 31.3188 304.464 31.3188C302.701 31.3188 301.186 31.7054 299.918 32.4785C298.65 33.2516 297.614 34.334 296.81 35.7256C296.037 37.1172 295.449 38.7562 295.047 40.6426C294.676 42.498 294.491 44.5391 294.491 46.7656V48.6211C294.491 50.6312 294.769 52.4867 295.326 54.1875C295.913 55.8883 296.733 57.3573 297.784 58.5942C298.867 59.8312 300.165 60.7899 301.681 61.4702C303.227 62.1506 304.974 62.4907 306.922 62.4907C309.334 62.4907 311.576 62.0269 313.648 61.0991C315.751 60.1405 317.56 58.7025 319.076 56.7852L325.57 63.8359C324.518 65.3512 323.08 66.8047 321.256 68.1963C319.462 69.5879 317.298 70.7321 314.762 71.6289C312.226 72.4948 309.334 72.9277 306.087 72.9277ZM347.372 32.5249V72H334.012V21.8096H346.537L347.372 32.5249ZM345.423 45.1421H341.805C341.805 41.4312 342.285 38.0913 343.243 35.1226C344.202 32.1229 345.547 29.5716 347.279 27.4688C349.011 25.335 351.067 23.7114 353.448 22.5981C355.86 21.4539 358.551 20.8818 361.52 20.8818C363.87 20.8818 366.019 21.222 367.967 21.9023C369.916 22.5827 371.585 23.665 372.977 25.1494C374.4 26.6338 375.482 28.5975 376.224 31.0405C376.997 33.4836 377.384 36.4678 377.384 39.9932V72H363.932V39.9468C363.932 37.7202 363.622 35.9884 363.004 34.7515C362.385 33.5145 361.473 32.6486 360.267 32.1538C359.092 31.6281 357.639 31.3652 355.907 31.3652C354.113 31.3652 352.551 31.7209 351.222 32.4321C349.923 33.1434 348.84 34.133 347.975 35.4009C347.14 36.6379 346.506 38.0913 346.073 39.7612C345.64 41.4312 345.423 43.2248 345.423 45.1421ZM401.644 21.8096V72H388.238V21.8096H401.644ZM387.403 8.72852C387.403 6.78027 388.084 5.1722 389.444 3.9043C390.805 2.63639 392.63 2.00244 394.918 2.00244C397.175 2.00244 398.985 2.63639 400.345 3.9043C401.737 5.1722 402.433 6.78027 402.433 8.72852C402.433 10.6768 401.737 12.2848 400.345 13.5527C398.985 14.8206 397.175 15.4546 394.918 15.4546C392.63 15.4546 390.805 14.8206 389.444 13.5527C388.084 12.2848 387.403 10.6768 387.403 8.72852ZM442.325 61.0527V0.75H455.777V72H443.67L442.325 61.0527ZM410.597 47.5078V46.5337C410.597 42.6991 411.03 39.2201 411.896 36.0967C412.761 32.9424 414.029 30.2365 415.699 27.979C417.369 25.7215 419.426 23.9743 421.869 22.7373C424.312 21.5003 427.095 20.8818 430.218 20.8818C433.156 20.8818 435.723 21.5003 437.918 22.7373C440.145 23.9743 442.031 25.737 443.578 28.0254C445.155 30.2829 446.423 32.9578 447.381 36.0503C448.34 39.1118 449.036 42.4671 449.469 46.1162V48.25C449.036 51.7445 448.34 54.9915 447.381 57.9912C446.423 60.9909 445.155 63.6195 443.578 65.877C442.031 68.1035 440.145 69.8353 437.918 71.0723C435.692 72.3092 433.094 72.9277 430.125 72.9277C427.002 72.9277 424.219 72.2938 421.776 71.0259C419.364 69.758 417.323 67.9798 415.653 65.6914C414.014 63.403 412.761 60.7126 411.896 57.6201C411.03 54.5277 410.597 51.1569 410.597 47.5078ZM423.956 46.5337V47.5078C423.956 49.5798 424.111 51.5125 424.42 53.3062C424.76 55.0998 425.301 56.6924 426.043 58.084C426.817 59.4447 427.806 60.5116 429.012 61.2847C430.249 62.0269 431.749 62.3979 433.512 62.3979C435.8 62.3979 437.687 61.8877 439.171 60.8672C440.655 59.8158 441.784 58.3778 442.557 56.5532C443.361 54.7287 443.825 52.6258 443.949 50.2446V44.168C443.856 42.2197 443.578 40.4725 443.114 38.9263C442.681 37.3491 442.031 36.0039 441.166 34.8906C440.331 33.7773 439.279 32.9115 438.011 32.293C436.774 31.6745 435.305 31.3652 433.604 31.3652C431.873 31.3652 430.388 31.7673 429.151 32.5713C427.914 33.3444 426.909 34.4113 426.136 35.772C425.394 37.1326 424.837 38.7407 424.466 40.5962C424.126 42.4207 423.956 44.3999 423.956 46.5337ZM464.081 47.415V46.4409C464.081 42.7609 464.606 39.3747 465.658 36.2822C466.709 33.1589 468.24 30.453 470.25 28.1646C472.26 25.8761 474.734 24.098 477.672 22.8301C480.61 21.5312 483.98 20.8818 487.784 20.8818C491.588 20.8818 494.974 21.5312 497.943 22.8301C500.912 24.098 503.401 25.8761 505.411 28.1646C507.452 30.453 508.998 33.1589 510.05 36.2822C511.101 39.3747 511.627 42.7609 511.627 46.4409V47.415C511.627 51.0641 511.101 54.4504 510.05 57.5737C508.998 60.6662 507.452 63.3721 505.411 65.6914C503.401 67.9798 500.927 69.758 497.989 71.0259C495.051 72.2938 491.681 72.9277 487.877 72.9277C484.073 72.9277 480.687 72.2938 477.718 71.0259C474.78 69.758 472.291 67.9798 470.25 65.6914C468.24 63.3721 466.709 60.6662 465.658 57.5737C464.606 54.4504 464.081 51.0641 464.081 47.415ZM477.44 46.4409V47.415C477.44 49.5179 477.625 51.4816 477.997 53.3062C478.368 55.1307 478.955 56.7388 479.759 58.1304C480.594 59.491 481.677 60.5579 483.006 61.3311C484.336 62.1042 485.96 62.4907 487.877 62.4907C489.732 62.4907 491.325 62.1042 492.655 61.3311C493.985 60.5579 495.051 59.491 495.855 58.1304C496.66 56.7388 497.247 55.1307 497.618 53.3062C498.02 51.4816 498.221 49.5179 498.221 47.415V46.4409C498.221 44.3999 498.02 42.4826 497.618 40.689C497.247 38.8644 496.644 37.2563 495.809 35.8647C495.005 34.4422 493.938 33.3289 492.608 32.5249C491.279 31.7209 489.671 31.3188 487.784 31.3188C485.898 31.3188 484.29 31.7209 482.96 32.5249C481.661 33.3289 480.594 34.4422 479.759 35.8647C478.955 37.2563 478.368 38.8644 477.997 40.689C477.625 42.4826 477.44 44.3999 477.44 46.4409ZM546.974 58.1304C546.974 57.1717 546.695 56.3058 546.139 55.5327C545.582 54.7596 544.546 54.0483 543.031 53.3989C541.546 52.7186 539.397 52.1001 536.583 51.5435C534.047 50.9868 531.681 50.291 529.486 49.4561C527.321 48.5902 525.435 47.5542 523.827 46.3481C522.25 45.1421 521.013 43.7196 520.116 42.0806C519.219 40.4106 518.771 38.5088 518.771 36.375C518.771 34.2721 519.219 32.293 520.116 30.4375C521.043 28.582 522.358 26.943 524.059 25.5205C525.79 24.0671 527.893 22.9383 530.367 22.1343C532.872 21.2993 535.686 20.8818 538.81 20.8818C543.17 20.8818 546.912 21.5776 550.035 22.9692C553.189 24.3608 555.602 26.2782 557.271 28.7212C558.972 31.1333 559.823 33.8856 559.823 36.978H546.463C546.463 35.6792 546.185 34.5195 545.628 33.499C545.103 32.4476 544.268 31.6281 543.124 31.0405C542.01 30.422 540.557 30.1128 538.763 30.1128C537.279 30.1128 535.995 30.3757 534.913 30.9014C533.831 31.3962 532.996 32.0765 532.408 32.9424C531.852 33.7773 531.573 34.7051 531.573 35.7256C531.573 36.4987 531.728 37.1945 532.037 37.813C532.377 38.4006 532.918 38.9417 533.661 39.4365C534.403 39.9313 535.361 40.3952 536.537 40.8281C537.743 41.2301 539.227 41.6012 540.99 41.9414C544.608 42.6836 547.84 43.6577 550.685 44.8638C553.53 46.0389 555.787 47.647 557.457 49.688C559.127 51.6981 559.962 54.3421 559.962 57.6201C559.962 59.8467 559.467 61.8877 558.478 63.7432C557.488 65.5986 556.065 67.2222 554.21 68.6138C552.354 69.9744 550.128 71.0413 547.53 71.8145C544.964 72.5566 542.072 72.9277 538.856 72.9277C534.186 72.9277 530.228 72.0928 526.981 70.4229C523.765 68.7529 521.322 66.6346 519.652 64.0679C518.013 61.4702 517.193 58.8107 517.193 56.0894H529.857C529.919 57.9139 530.383 59.3828 531.249 60.4961C532.145 61.6094 533.274 62.4134 534.635 62.9082C536.026 63.403 537.526 63.6504 539.134 63.6504C540.866 63.6504 542.304 63.4185 543.448 62.9546C544.592 62.4598 545.458 61.8104 546.046 61.0063C546.664 60.1714 546.974 59.2127 546.974 58.1304ZM619.383 60.6816V38.3232C619.383 36.7152 619.12 35.339 618.595 34.1948C618.069 33.0197 617.25 32.1074 616.136 31.458C615.054 30.8086 613.647 30.4839 611.915 30.4839C610.431 30.4839 609.147 30.7467 608.065 31.2725C606.983 31.7673 606.148 32.494 605.56 33.4526C604.972 34.3804 604.679 35.4782 604.679 36.7461H591.319C591.319 34.6123 591.814 32.5868 592.804 30.6694C593.793 28.7521 595.231 27.0667 597.118 25.6133C599.004 24.1289 601.246 22.9692 603.844 22.1343C606.472 21.2993 609.41 20.8818 612.657 20.8818C616.554 20.8818 620.017 21.5312 623.048 22.8301C626.078 24.1289 628.46 26.0771 630.191 28.6748C631.954 31.2725 632.835 34.5195 632.835 38.416V59.8931C632.835 62.6453 633.006 64.9028 633.346 66.6655C633.686 68.3973 634.181 69.9126 634.83 71.2114V72H621.332C620.682 70.6393 620.187 68.9385 619.847 66.8975C619.538 64.8255 619.383 62.7536 619.383 60.6816ZM621.146 41.4312L621.239 48.9922H613.771C612.008 48.9922 610.477 49.1932 609.178 49.5952C607.879 49.9972 606.812 50.5693 605.978 51.3115C605.143 52.0228 604.524 52.8577 604.122 53.8164C603.751 54.7751 603.565 55.8265 603.565 56.9707C603.565 58.1149 603.828 59.1509 604.354 60.0786C604.88 60.9754 605.637 61.6867 606.627 62.2124C607.617 62.7072 608.776 62.9546 610.106 62.9546C612.116 62.9546 613.863 62.5526 615.348 61.7485C616.832 60.9445 617.976 59.9549 618.78 58.7798C619.615 57.6047 620.048 56.4914 620.079 55.4399L623.604 61.0991C623.11 62.367 622.429 63.6813 621.563 65.042C620.729 66.4027 619.662 67.686 618.363 68.8921C617.064 70.0672 615.502 71.0413 613.678 71.8145C611.853 72.5566 609.688 72.9277 607.184 72.9277C603.998 72.9277 601.107 72.2938 598.509 71.0259C595.943 69.7271 593.902 67.9489 592.386 65.6914C590.902 63.403 590.16 60.8053 590.16 57.8984C590.16 55.2699 590.654 52.9351 591.644 50.894C592.634 48.853 594.087 47.1367 596.004 45.7451C597.953 44.3226 600.38 43.2557 603.287 42.5444C606.194 41.8022 609.565 41.4312 613.399 41.4312H621.146ZM657.235 0.75V72H643.829V0.75H657.235Z" fill="white"/>
<mask id="path-2-outside-1_1_4426" maskUnits="userSpaceOnUse" x="84" y="184" width="317" height="51" fill="black">
<rect fill="white" x="84" y="184" width="317" height="51"/>
<path d="M103.332 214.797H110.499C110.637 214.797 110.751 214.753 110.843 214.665C110.981 214.532 111.027 214.4 110.981 214.268L106.984 196.985C106.984 196.941 106.961 196.919 106.915 196.919C106.869 196.919 106.846 196.941 106.846 196.985L102.849 214.268C102.803 214.4 102.826 214.532 102.918 214.665C103.056 214.753 103.194 214.797 103.332 214.797ZM115.461 189.238L128.968 230.424C129.244 231.307 129.083 232.124 128.486 232.874C127.934 233.625 127.176 234 126.211 234H119.458C118.309 234 117.275 233.669 116.357 233.007C115.484 232.3 114.932 231.418 114.703 230.358L113.531 225.259C113.439 224.906 113.209 224.73 112.842 224.73H101.057C100.598 224.73 100.345 224.906 100.299 225.259L99.1277 230.358C98.8979 231.418 98.3236 232.3 97.4048 233.007C96.5318 233.669 95.5211 234 94.3725 234H87.8944C86.9296 234 86.1486 233.625 85.5513 232.874C85 232.124 84.8622 231.307 85.1378 230.424L98.6453 189.238C98.9669 188.178 99.5871 187.318 100.506 186.655C101.471 185.993 102.55 185.662 103.745 185.662H110.361C111.509 185.662 112.543 185.993 113.462 186.655C114.427 187.318 115.093 188.178 115.461 189.238Z"/>
<path d="M152.246 207.514C154.59 207.514 156.427 206.962 157.76 205.858C159.138 204.71 159.827 203.165 159.827 201.223C159.827 197.029 157.3 194.932 152.246 194.932C151.098 194.932 150.041 194.999 149.076 195.131C148.663 195.219 148.456 195.462 148.456 195.859V206.918C148.456 207.315 148.663 207.514 149.076 207.514H152.246ZM170.027 220.757L173.679 230.491C174.001 231.373 173.886 232.19 173.334 232.941C172.783 233.647 172.025 234 171.06 234H164.789C163.594 234 162.515 233.669 161.55 233.007C160.585 232.345 159.942 231.484 159.62 230.424L156.588 221.419C156.083 219.874 155.439 218.77 154.658 218.108C153.877 217.446 152.844 217.115 151.557 217.115H149.076C148.663 217.115 148.456 217.314 148.456 217.711V230.226C148.456 231.241 148.066 232.124 147.284 232.874C146.503 233.625 145.585 234 144.528 234H138.946C137.889 234 136.97 233.625 136.189 232.874C135.408 232.124 135.018 231.241 135.018 230.226V189.768C135.018 188.708 135.362 187.781 136.051 186.986C136.786 186.148 137.705 185.684 138.808 185.596C143.31 185.199 148.02 185 152.936 185C166.719 185 173.61 189.966 173.61 199.899C173.61 202.68 172.714 205.262 170.922 207.646C169.177 210.03 166.879 211.729 164.031 212.745C163.985 212.745 163.962 212.767 163.962 212.811C163.962 212.899 163.985 212.943 164.031 212.943C165.409 213.694 166.535 214.643 167.408 215.791C168.327 216.938 169.2 218.594 170.027 220.757Z"/>
<path d="M216.798 185.662C217.762 185.662 218.52 186.037 219.072 186.788C219.669 187.538 219.83 188.355 219.554 189.238L206.047 230.424C205.679 231.484 205.013 232.345 204.048 233.007C203.129 233.669 202.096 234 200.947 234H194.331C193.137 234 192.057 233.669 191.092 233.007C190.173 232.345 189.553 231.484 189.231 230.424L175.724 189.238C175.448 188.355 175.586 187.538 176.137 186.788C176.735 186.037 177.516 185.662 178.481 185.662H185.234C186.383 185.662 187.394 186.015 188.267 186.722C189.185 187.384 189.76 188.245 189.989 189.304L197.432 221.353C197.432 221.397 197.478 221.419 197.57 221.419C197.616 221.419 197.639 221.397 197.639 221.353L205.495 189.304C205.771 188.245 206.345 187.384 207.218 186.722C208.137 186.015 209.171 185.662 210.319 185.662H216.798Z"/>
<path d="M237.526 185.662C238.583 185.662 239.502 186.037 240.283 186.788C241.064 187.538 241.454 188.421 241.454 189.436V230.226C241.454 231.241 241.064 232.124 240.283 232.874C239.502 233.625 238.583 234 237.526 234H230.221C229.164 234 228.245 233.625 227.464 232.874C226.683 232.124 226.293 231.241 226.293 230.226V189.436C226.293 188.421 226.683 187.538 227.464 186.788C228.245 186.037 229.164 185.662 230.221 185.662H237.526Z"/>
<path d="M310.479 185.662C311.444 185.662 312.202 186.037 312.754 186.788C313.351 187.538 313.512 188.355 313.236 189.238L299.729 230.424C299.361 231.484 298.695 232.345 297.73 233.007C296.811 233.669 295.777 234 294.629 234H288.013C286.818 234 285.739 233.669 284.774 233.007C283.855 232.345 283.235 231.484 282.913 230.424L269.406 189.238C269.13 188.355 269.268 187.538 269.819 186.788C270.417 186.037 271.198 185.662 272.162 185.662H278.916C280.065 185.662 281.076 186.015 281.948 186.722C282.867 187.384 283.442 188.245 283.671 189.304L291.114 221.353C291.114 221.397 291.16 221.419 291.252 221.419C291.298 221.419 291.321 221.397 291.321 221.353L299.177 189.304C299.453 188.245 300.027 187.384 300.9 186.722C301.819 186.015 302.853 185.662 304.001 185.662H310.479Z"/>
<path d="M348.437 185.662C349.493 185.662 350.412 186.037 351.193 186.788C351.974 187.538 352.365 188.421 352.365 189.436V192.482C352.365 193.498 351.974 194.381 351.193 195.131C350.412 195.882 349.493 196.257 348.437 196.257H333.689C333.275 196.257 333.069 196.433 333.069 196.786V203.607C333.069 204.004 333.275 204.203 333.689 204.203H347.058C348.115 204.203 349.034 204.578 349.815 205.328C350.596 206.079 350.987 206.962 350.987 207.977V210.361C350.987 211.376 350.596 212.259 349.815 213.009C349.034 213.76 348.115 214.135 347.058 214.135H333.689C333.275 214.135 333.069 214.312 333.069 214.665V222.809C333.069 223.207 333.275 223.405 333.689 223.405H348.437C349.493 223.405 350.412 223.781 351.193 224.531C351.974 225.282 352.365 226.164 352.365 227.18V230.226C352.365 231.241 351.974 232.124 351.193 232.874C350.412 233.625 349.493 234 348.437 234H323.214C322.157 234 321.238 233.625 320.457 232.874C319.676 232.124 319.286 231.241 319.286 230.226V189.436C319.286 188.421 319.676 187.538 320.457 186.788C321.238 186.037 322.157 185.662 323.214 185.662H348.437Z"/>
<path d="M396.072 185.662C397.129 185.662 398.047 186.037 398.828 186.788C399.609 187.538 400 188.421 400 189.436V192.814C400 193.829 399.609 194.712 398.828 195.462C398.047 196.213 397.129 196.588 396.072 196.588H387.664C387.251 196.588 387.044 196.786 387.044 197.184V230.226C387.044 231.241 386.653 232.124 385.872 232.874C385.137 233.625 384.241 234 383.185 234H376.844C375.788 234 374.869 233.625 374.088 232.874C373.353 232.124 372.985 231.241 372.985 230.226V197.184C372.985 196.786 372.778 196.588 372.365 196.588H363.957C362.901 196.588 361.982 196.213 361.201 195.462C360.42 194.712 360.029 193.829 360.029 192.814V189.436C360.029 188.421 360.42 187.538 361.201 186.788C361.982 186.037 362.901 185.662 363.957 185.662H396.072Z"/>
</mask>
<path d="M103.332 214.797H110.499C110.637 214.797 110.751 214.753 110.843 214.665C110.981 214.532 111.027 214.4 110.981 214.268L106.984 196.985C106.984 196.941 106.961 196.919 106.915 196.919C106.869 196.919 106.846 196.941 106.846 196.985L102.849 214.268C102.803 214.4 102.826 214.532 102.918 214.665C103.056 214.753 103.194 214.797 103.332 214.797ZM115.461 189.238L128.968 230.424C129.244 231.307 129.083 232.124 128.486 232.874C127.934 233.625 127.176 234 126.211 234H119.458C118.309 234 117.275 233.669 116.357 233.007C115.484 232.3 114.932 231.418 114.703 230.358L113.531 225.259C113.439 224.906 113.209 224.73 112.842 224.73H101.057C100.598 224.73 100.345 224.906 100.299 225.259L99.1277 230.358C98.8979 231.418 98.3236 232.3 97.4048 233.007C96.5318 233.669 95.5211 234 94.3725 234H87.8944C86.9296 234 86.1486 233.625 85.5513 232.874C85 232.124 84.8622 231.307 85.1378 230.424L98.6453 189.238C98.9669 188.178 99.5871 187.318 100.506 186.655C101.471 185.993 102.55 185.662 103.745 185.662H110.361C111.509 185.662 112.543 185.993 113.462 186.655C114.427 187.318 115.093 188.178 115.461 189.238Z" fill="#7BAD39"/>
<path d="M152.246 207.514C154.59 207.514 156.427 206.962 157.76 205.858C159.138 204.71 159.827 203.165 159.827 201.223C159.827 197.029 157.3 194.932 152.246 194.932C151.098 194.932 150.041 194.999 149.076 195.131C148.663 195.219 148.456 195.462 148.456 195.859V206.918C148.456 207.315 148.663 207.514 149.076 207.514H152.246ZM170.027 220.757L173.679 230.491C174.001 231.373 173.886 232.19 173.334 232.941C172.783 233.647 172.025 234 171.06 234H164.789C163.594 234 162.515 233.669 161.55 233.007C160.585 232.345 159.942 231.484 159.62 230.424L156.588 221.419C156.083 219.874 155.439 218.77 154.658 218.108C153.877 217.446 152.844 217.115 151.557 217.115H149.076C148.663 217.115 148.456 217.314 148.456 217.711V230.226C148.456 231.241 148.066 232.124 147.284 232.874C146.503 233.625 145.585 234 144.528 234H138.946C137.889 234 136.97 233.625 136.189 232.874C135.408 232.124 135.018 231.241 135.018 230.226V189.768C135.018 188.708 135.362 187.781 136.051 186.986C136.786 186.148 137.705 185.684 138.808 185.596C143.31 185.199 148.02 185 152.936 185C166.719 185 173.61 189.966 173.61 199.899C173.61 202.68 172.714 205.262 170.922 207.646C169.177 210.03 166.879 211.729 164.031 212.745C163.985 212.745 163.962 212.767 163.962 212.811C163.962 212.899 163.985 212.943 164.031 212.943C165.409 213.694 166.535 214.643 167.408 215.791C168.327 216.938 169.2 218.594 170.027 220.757Z" fill="#7BAD39"/>
<path d="M216.798 185.662C217.762 185.662 218.52 186.037 219.072 186.788C219.669 187.538 219.83 188.355 219.554 189.238L206.047 230.424C205.679 231.484 205.013 232.345 204.048 233.007C203.129 233.669 202.096 234 200.947 234H194.331C193.137 234 192.057 233.669 191.092 233.007C190.173 232.345 189.553 231.484 189.231 230.424L175.724 189.238C175.448 188.355 175.586 187.538 176.137 186.788C176.735 186.037 177.516 185.662 178.481 185.662H185.234C186.383 185.662 187.394 186.015 188.267 186.722C189.185 187.384 189.76 188.245 189.989 189.304L197.432 221.353C197.432 221.397 197.478 221.419 197.57 221.419C197.616 221.419 197.639 221.397 197.639 221.353L205.495 189.304C205.771 188.245 206.345 187.384 207.218 186.722C208.137 186.015 209.171 185.662 210.319 185.662H216.798Z" fill="#7BAD39"/>
<path d="M237.526 185.662C238.583 185.662 239.502 186.037 240.283 186.788C241.064 187.538 241.454 188.421 241.454 189.436V230.226C241.454 231.241 241.064 232.124 240.283 232.874C239.502 233.625 238.583 234 237.526 234H230.221C229.164 234 228.245 233.625 227.464 232.874C226.683 232.124 226.293 231.241 226.293 230.226V189.436C226.293 188.421 226.683 187.538 227.464 186.788C228.245 186.037 229.164 185.662 230.221 185.662H237.526Z" fill="#7BAD39"/>
<path d="M310.479 185.662C311.444 185.662 312.202 186.037 312.754 186.788C313.351 187.538 313.512 188.355 313.236 189.238L299.729 230.424C299.361 231.484 298.695 232.345 297.73 233.007C296.811 233.669 295.777 234 294.629 234H288.013C286.818 234 285.739 233.669 284.774 233.007C283.855 232.345 283.235 231.484 282.913 230.424L269.406 189.238C269.13 188.355 269.268 187.538 269.819 186.788C270.417 186.037 271.198 185.662 272.162 185.662H278.916C280.065 185.662 281.076 186.015 281.948 186.722C282.867 187.384 283.442 188.245 283.671 189.304L291.114 221.353C291.114 221.397 291.16 221.419 291.252 221.419C291.298 221.419 291.321 221.397 291.321 221.353L299.177 189.304C299.453 188.245 300.027 187.384 300.9 186.722C301.819 186.015 302.853 185.662 304.001 185.662H310.479Z" fill="#7BAD39"/>
<path d="M348.437 185.662C349.493 185.662 350.412 186.037 351.193 186.788C351.974 187.538 352.365 188.421 352.365 189.436V192.482C352.365 193.498 351.974 194.381 351.193 195.131C350.412 195.882 349.493 196.257 348.437 196.257H333.689C333.275 196.257 333.069 196.433 333.069 196.786V203.607C333.069 204.004 333.275 204.203 333.689 204.203H347.058C348.115 204.203 349.034 204.578 349.815 205.328C350.596 206.079 350.987 206.962 350.987 207.977V210.361C350.987 211.376 350.596 212.259 349.815 213.009C349.034 213.76 348.115 214.135 347.058 214.135H333.689C333.275 214.135 333.069 214.312 333.069 214.665V222.809C333.069 223.207 333.275 223.405 333.689 223.405H348.437C349.493 223.405 350.412 223.781 351.193 224.531C351.974 225.282 352.365 226.164 352.365 227.18V230.226C352.365 231.241 351.974 232.124 351.193 232.874C350.412 233.625 349.493 234 348.437 234H323.214C322.157 234 321.238 233.625 320.457 232.874C319.676 232.124 319.286 231.241 319.286 230.226V189.436C319.286 188.421 319.676 187.538 320.457 186.788C321.238 186.037 322.157 185.662 323.214 185.662H348.437Z" fill="#7BAD39"/>
<path d="M396.072 185.662C397.129 185.662 398.047 186.037 398.828 186.788C399.609 187.538 400 188.421 400 189.436V192.814C400 193.829 399.609 194.712 398.828 195.462C398.047 196.213 397.129 196.588 396.072 196.588H387.664C387.251 196.588 387.044 196.786 387.044 197.184V230.226C387.044 231.241 386.653 232.124 385.872 232.874C385.137 233.625 384.241 234 383.185 234H376.844C375.788 234 374.869 233.625 374.088 232.874C373.353 232.124 372.985 231.241 372.985 230.226V197.184C372.985 196.786 372.778 196.588 372.365 196.588H363.957C362.901 196.588 361.982 196.213 361.201 195.462C360.42 194.712 360.029 193.829 360.029 192.814V189.436C360.029 188.421 360.42 187.538 361.201 186.788C361.982 186.037 362.901 185.662 363.957 185.662H396.072Z" fill="#7BAD39"/>
<path d="M103.332 214.797H110.499C110.637 214.797 110.751 214.753 110.843 214.665C110.981 214.532 111.027 214.4 110.981 214.268L106.984 196.985C106.984 196.941 106.961 196.919 106.915 196.919C106.869 196.919 106.846 196.941 106.846 196.985L102.849 214.268C102.803 214.4 102.826 214.532 102.918 214.665C103.056 214.753 103.194 214.797 103.332 214.797ZM115.461 189.238L128.968 230.424C129.244 231.307 129.083 232.124 128.486 232.874C127.934 233.625 127.176 234 126.211 234H119.458C118.309 234 117.275 233.669 116.357 233.007C115.484 232.3 114.932 231.418 114.703 230.358L113.531 225.259C113.439 224.906 113.209 224.73 112.842 224.73H101.057C100.598 224.73 100.345 224.906 100.299 225.259L99.1277 230.358C98.8979 231.418 98.3236 232.3 97.4048 233.007C96.5318 233.669 95.5211 234 94.3725 234H87.8944C86.9296 234 86.1486 233.625 85.5513 232.874C85 232.124 84.8622 231.307 85.1378 230.424L98.6453 189.238C98.9669 188.178 99.5871 187.318 100.506 186.655C101.471 185.993 102.55 185.662 103.745 185.662H110.361C111.509 185.662 112.543 185.993 113.462 186.655C114.427 187.318 115.093 188.178 115.461 189.238Z" stroke="#C4E6ED" stroke-width="2" mask="url(#path-2-outside-1_1_4426)"/>
<path d="M152.246 207.514C154.59 207.514 156.427 206.962 157.76 205.858C159.138 204.71 159.827 203.165 159.827 201.223C159.827 197.029 157.3 194.932 152.246 194.932C151.098 194.932 150.041 194.999 149.076 195.131C148.663 195.219 148.456 195.462 148.456 195.859V206.918C148.456 207.315 148.663 207.514 149.076 207.514H152.246ZM170.027 220.757L173.679 230.491C174.001 231.373 173.886 232.19 173.334 232.941C172.783 233.647 172.025 234 171.06 234H164.789C163.594 234 162.515 233.669 161.55 233.007C160.585 232.345 159.942 231.484 159.62 230.424L156.588 221.419C156.083 219.874 155.439 218.77 154.658 218.108C153.877 217.446 152.844 217.115 151.557 217.115H149.076C148.663 217.115 148.456 217.314 148.456 217.711V230.226C148.456 231.241 148.066 232.124 147.284 232.874C146.503 233.625 145.585 234 144.528 234H138.946C137.889 234 136.97 233.625 136.189 232.874C135.408 232.124 135.018 231.241 135.018 230.226V189.768C135.018 188.708 135.362 187.781 136.051 186.986C136.786 186.148 137.705 185.684 138.808 185.596C143.31 185.199 148.02 185 152.936 185C166.719 185 173.61 189.966 173.61 199.899C173.61 202.68 172.714 205.262 170.922 207.646C169.177 210.03 166.879 211.729 164.031 212.745C163.985 212.745 163.962 212.767 163.962 212.811C163.962 212.899 163.985 212.943 164.031 212.943C165.409 213.694 166.535 214.643 167.408 215.791C168.327 216.938 169.2 218.594 170.027 220.757Z" stroke="#C4E6ED" stroke-width="2" mask="url(#path-2-outside-1_1_4426)"/>
<path d="M216.798 185.662C217.762 185.662 218.52 186.037 219.072 186.788C219.669 187.538 219.83 188.355 219.554 189.238L206.047 230.424C205.679 231.484 205.013 232.345 204.048 233.007C203.129 233.669 202.096 234 200.947 234H194.331C193.137 234 192.057 233.669 191.092 233.007C190.173 232.345 189.553 231.484 189.231 230.424L175.724 189.238C175.448 188.355 175.586 187.538 176.137 186.788C176.735 186.037 177.516 185.662 178.481 185.662H185.234C186.383 185.662 187.394 186.015 188.267 186.722C189.185 187.384 189.76 188.245 189.989 189.304L197.432 221.353C197.432 221.397 197.478 221.419 197.57 221.419C197.616 221.419 197.639 221.397 197.639 221.353L205.495 189.304C205.771 188.245 206.345 187.384 207.218 186.722C208.137 186.015 209.171 185.662 210.319 185.662H216.798Z" stroke="#C4E6ED" stroke-width="2" mask="url(#path-2-outside-1_1_4426)"/>
<path d="M237.526 185.662C238.583 185.662 239.502 186.037 240.283 186.788C241.064 187.538 241.454 188.421 241.454 189.436V230.226C241.454 231.241 241.064 232.124 240.283 232.874C239.502 233.625 238.583 234 237.526 234H230.221C229.164 234 228.245 233.625 227.464 232.874C226.683 232.124 226.293 231.241 226.293 230.226V189.436C226.293 188.421 226.683 187.538 227.464 186.788C228.245 186.037 229.164 185.662 230.221 185.662H237.526Z" stroke="#C4E6ED" stroke-width="2" mask="url(#path-2-outside-1_1_4426)"/>
<path d="M310.479 185.662C311.444 185.662 312.202 186.037 312.754 186.788C313.351 187.538 313.512 188.355 313.236 189.238L299.729 230.424C299.361 231.484 298.695 232.345 297.73 233.007C296.811 233.669 295.777 234 294.629 234H288.013C286.818 234 285.739 233.669 284.774 233.007C283.855 232.345 283.235 231.484 282.913 230.424L269.406 189.238C269.13 188.355 269.268 187.538 269.819 186.788C270.417 186.037 271.198 185.662 272.162 185.662H278.916C280.065 185.662 281.076 186.015 281.948 186.722C282.867 187.384 283.442 188.245 283.671 189.304L291.114 221.353C291.114 221.397 291.16 221.419 291.252 221.419C291.298 221.419 291.321 221.397 291.321 221.353L299.177 189.304C299.453 188.245 300.027 187.384 300.9 186.722C301.819 186.015 302.853 185.662 304.001 185.662H310.479Z" stroke="#C4E6ED" stroke-width="2" mask="url(#path-2-outside-1_1_4426)"/>
<path d="M348.437 185.662C349.493 185.662 350.412 186.037 351.193 186.788C351.974 187.538 352.365 188.421 352.365 189.436V192.482C352.365 193.498 351.974 194.381 351.193 195.131C350.412 195.882 349.493 196.257 348.437 196.257H333.689C333.275 196.257 333.069 196.433 333.069 196.786V203.607C333.069 204.004 333.275 204.203 333.689 204.203H347.058C348.115 204.203 349.034 204.578 349.815 205.328C350.596 206.079 350.987 206.962 350.987 207.977V210.361C350.987 211.376 350.596 212.259 349.815 213.009C349.034 213.76 348.115 214.135 347.058 214.135H333.689C333.275 214.135 333.069 214.312 333.069 214.665V222.809C333.069 223.207 333.275 223.405 333.689 223.405H348.437C349.493 223.405 350.412 223.781 351.193 224.531C351.974 225.282 352.365 226.164 352.365 227.18V230.226C352.365 231.241 351.974 232.124 351.193 232.874C350.412 233.625 349.493 234 348.437 234H323.214C322.157 234 321.238 233.625 320.457 232.874C319.676 232.124 319.286 231.241 319.286 230.226V189.436C319.286 188.421 319.676 187.538 320.457 186.788C321.238 186.037 322.157 185.662 323.214 185.662H348.437Z" stroke="#C4E6ED" stroke-width="2" mask="url(#path-2-outside-1_1_4426)"/>
<path d="M396.072 185.662C397.129 185.662 398.047 186.037 398.828 186.788C399.609 187.538 400 188.421 400 189.436V192.814C400 193.829 399.609 194.712 398.828 195.462C398.047 196.213 397.129 196.588 396.072 196.588H387.664C387.251 196.588 387.044 196.786 387.044 197.184V230.226C387.044 231.241 386.653 232.124 385.872 232.874C385.137 233.625 384.241 234 383.185 234H376.844C375.788 234 374.869 233.625 374.088 232.874C373.353 232.124 372.985 231.241 372.985 230.226V197.184C372.985 196.786 372.778 196.588 372.365 196.588H363.957C362.901 196.588 361.982 196.213 361.201 195.462C360.42 194.712 360.029 193.829 360.029 192.814V189.436C360.029 188.421 360.42 187.538 361.201 186.788C361.982 186.037 362.901 185.662 363.957 185.662H396.072Z" stroke="#C4E6ED" stroke-width="2" mask="url(#path-2-outside-1_1_4426)"/>
<path d="M107.104 152.609L118.827 113.234H130.243L112.914 163H105.395L107.104 152.609ZM96.3027 113.234L107.992 152.609L109.77 163H102.182L84.9551 113.234H96.3027ZM149.794 163.684C146.923 163.684 144.348 163.228 142.069 162.316C139.791 161.382 137.854 160.095 136.259 158.454C134.687 156.813 133.479 154.911 132.636 152.746C131.793 150.559 131.371 148.234 131.371 145.773V144.406C131.371 141.604 131.77 139.04 132.567 136.716C133.365 134.392 134.504 132.375 135.985 130.666C137.489 128.957 139.312 127.647 141.454 126.735C143.596 125.801 146.011 125.334 148.7 125.334C151.321 125.334 153.645 125.767 155.673 126.633C157.701 127.499 159.398 128.729 160.766 130.324C162.156 131.919 163.204 133.833 163.91 136.066C164.617 138.277 164.97 140.738 164.97 143.449V147.551H135.575V140.988H155.297V140.236C155.297 138.869 155.046 137.65 154.545 136.579C154.066 135.485 153.337 134.619 152.357 133.981C151.378 133.343 150.124 133.024 148.598 133.024C147.299 133.024 146.182 133.309 145.248 133.879C144.314 134.449 143.55 135.246 142.958 136.271C142.388 137.297 141.955 138.505 141.659 139.895C141.386 141.262 141.249 142.766 141.249 144.406V145.773C141.249 147.255 141.454 148.622 141.864 149.875C142.297 151.128 142.901 152.211 143.676 153.122C144.473 154.034 145.43 154.74 146.547 155.241C147.686 155.743 148.974 155.993 150.409 155.993C152.187 155.993 153.839 155.651 155.365 154.968C156.915 154.261 158.248 153.202 159.364 151.789L164.149 156.984C163.375 158.101 162.315 159.172 160.971 160.197C159.649 161.223 158.054 162.066 156.186 162.727C154.317 163.365 152.187 163.684 149.794 163.684ZM188.69 126.018V132.99H167.157V126.018H188.69ZM172.489 116.892H182.333V151.857C182.333 152.928 182.47 153.749 182.743 154.318C183.039 154.888 183.472 155.287 184.042 155.515C184.612 155.72 185.329 155.822 186.195 155.822C186.811 155.822 187.357 155.799 187.836 155.754C188.337 155.686 188.759 155.617 189.101 155.549L189.135 162.795C188.292 163.068 187.38 163.285 186.4 163.444C185.421 163.604 184.338 163.684 183.153 163.684C180.989 163.684 179.097 163.33 177.479 162.624C175.884 161.895 174.654 160.733 173.788 159.138C172.922 157.543 172.489 155.446 172.489 152.849V116.892ZM211.317 163.684C208.446 163.684 205.871 163.228 203.593 162.316C201.314 161.382 199.377 160.095 197.782 158.454C196.21 156.813 195.002 154.911 194.159 152.746C193.316 150.559 192.895 148.234 192.895 145.773V144.406C192.895 141.604 193.293 139.04 194.091 136.716C194.888 134.392 196.028 132.375 197.509 130.666C199.013 128.957 200.836 127.647 202.978 126.735C205.119 125.801 207.535 125.334 210.224 125.334C212.844 125.334 215.168 125.767 217.196 126.633C219.224 127.499 220.922 128.729 222.289 130.324C223.679 131.919 224.727 133.833 225.434 136.066C226.14 138.277 226.493 140.738 226.493 143.449V147.551H197.099V140.988H216.82V140.236C216.82 138.869 216.57 137.65 216.068 136.579C215.59 135.485 214.861 134.619 213.881 133.981C212.901 133.343 211.648 133.024 210.121 133.024C208.822 133.024 207.706 133.309 206.771 133.879C205.837 134.449 205.074 135.246 204.481 136.271C203.912 137.297 203.479 138.505 203.183 139.895C202.909 141.262 202.772 142.766 202.772 144.406V145.773C202.772 147.255 202.978 148.622 203.388 149.875C203.821 151.128 204.424 152.211 205.199 153.122C205.997 154.034 206.954 154.74 208.07 155.241C209.21 155.743 210.497 155.993 211.933 155.993C213.71 155.993 215.362 155.651 216.889 154.968C218.438 154.261 219.771 153.202 220.888 151.789L225.673 156.984C224.898 158.101 223.839 159.172 222.494 160.197C221.173 161.223 219.577 162.066 217.709 162.727C215.84 163.365 213.71 163.684 211.317 163.684ZM241.942 134.084V163H232.099V126.018H241.361L241.942 134.084ZM253.085 125.778L252.914 134.904C252.436 134.836 251.854 134.779 251.171 134.733C250.51 134.665 249.906 134.631 249.359 134.631C247.969 134.631 246.762 134.813 245.736 135.178C244.734 135.52 243.891 136.032 243.207 136.716C242.546 137.399 242.045 138.231 241.703 139.211C241.384 140.191 241.202 141.307 241.156 142.561L239.174 141.945C239.174 139.553 239.413 137.354 239.892 135.349C240.37 133.321 241.065 131.555 241.977 130.051C242.911 128.547 244.05 127.385 245.395 126.564C246.739 125.744 248.277 125.334 250.009 125.334C250.556 125.334 251.114 125.38 251.684 125.471C252.253 125.539 252.72 125.642 253.085 125.778ZM268.124 126.018V163H258.246V126.018H268.124ZM257.631 116.379C257.631 114.943 258.132 113.758 259.135 112.824C260.137 111.89 261.482 111.423 263.168 111.423C264.831 111.423 266.164 111.89 267.167 112.824C268.192 113.758 268.705 114.943 268.705 116.379C268.705 117.814 268.192 118.999 267.167 119.934C266.164 120.868 264.831 121.335 263.168 121.335C261.482 121.335 260.137 120.868 259.135 119.934C258.132 118.999 257.631 117.814 257.631 116.379ZM285.897 133.913V163H276.054V126.018H285.282L285.897 133.913ZM284.462 143.21H281.796C281.796 140.476 282.149 138.015 282.855 135.827C283.562 133.617 284.553 131.737 285.829 130.188C287.105 128.615 288.62 127.419 290.375 126.599C292.152 125.756 294.135 125.334 296.322 125.334C298.054 125.334 299.638 125.585 301.073 126.086C302.509 126.587 303.739 127.385 304.765 128.479C305.813 129.572 306.61 131.019 307.157 132.819C307.727 134.619 308.012 136.818 308.012 139.416V163H298.1V139.382C298.1 137.741 297.872 136.465 297.416 135.554C296.96 134.642 296.288 134.004 295.399 133.64C294.534 133.252 293.463 133.059 292.187 133.059C290.865 133.059 289.714 133.321 288.734 133.845C287.777 134.369 286.98 135.098 286.342 136.032C285.727 136.944 285.259 138.015 284.94 139.245C284.621 140.476 284.462 141.797 284.462 143.21ZM335.458 154.66V138.186C335.458 137.001 335.264 135.987 334.877 135.144C334.49 134.278 333.886 133.605 333.065 133.127C332.268 132.648 331.231 132.409 329.955 132.409C328.861 132.409 327.916 132.603 327.118 132.99C326.321 133.355 325.705 133.89 325.272 134.597C324.84 135.28 324.623 136.089 324.623 137.023H314.779C314.779 135.451 315.144 133.959 315.873 132.546C316.602 131.133 317.662 129.891 319.052 128.82C320.442 127.727 322.094 126.872 324.008 126.257C325.945 125.642 328.109 125.334 330.502 125.334C333.373 125.334 335.925 125.812 338.158 126.77C340.391 127.727 342.146 129.162 343.422 131.076C344.721 132.99 345.37 135.383 345.37 138.254V154.079C345.37 156.107 345.495 157.771 345.746 159.069C345.997 160.345 346.361 161.462 346.84 162.419V163H336.894C336.415 161.997 336.05 160.744 335.8 159.24C335.572 157.714 335.458 156.187 335.458 154.66ZM336.757 140.476L336.825 146.047H331.322C330.023 146.047 328.896 146.195 327.938 146.491C326.981 146.787 326.195 147.209 325.58 147.756C324.965 148.28 324.509 148.895 324.213 149.602C323.939 150.308 323.803 151.083 323.803 151.926C323.803 152.769 323.996 153.532 324.384 154.216C324.771 154.877 325.329 155.401 326.059 155.788C326.788 156.153 327.642 156.335 328.622 156.335C330.103 156.335 331.391 156.039 332.484 155.446C333.578 154.854 334.421 154.125 335.014 153.259C335.629 152.393 335.948 151.573 335.971 150.798L338.568 154.968C338.204 155.902 337.702 156.87 337.064 157.873C336.449 158.876 335.663 159.821 334.706 160.71C333.749 161.576 332.598 162.294 331.254 162.863C329.91 163.41 328.314 163.684 326.469 163.684C324.122 163.684 321.991 163.216 320.077 162.282C318.186 161.325 316.682 160.015 315.565 158.352C314.472 156.665 313.925 154.751 313.925 152.609C313.925 150.673 314.289 148.952 315.019 147.448C315.748 145.944 316.819 144.68 318.231 143.654C319.667 142.606 321.456 141.82 323.598 141.296C325.74 140.749 328.223 140.476 331.049 140.476H336.757ZM362.802 134.084V163H352.958V126.018H362.221L362.802 134.084ZM373.944 125.778L373.773 134.904C373.295 134.836 372.714 134.779 372.03 134.733C371.369 134.665 370.766 134.631 370.219 134.631C368.829 134.631 367.621 134.813 366.596 135.178C365.593 135.52 364.75 136.032 364.066 136.716C363.406 137.399 362.904 138.231 362.562 139.211C362.243 140.191 362.061 141.307 362.016 142.561L360.033 141.945C360.033 139.553 360.272 137.354 360.751 135.349C361.229 133.321 361.924 131.555 362.836 130.051C363.77 128.547 364.91 127.385 366.254 126.564C367.598 125.744 369.136 125.334 370.868 125.334C371.415 125.334 371.973 125.38 372.543 125.471C373.113 125.539 373.58 125.642 373.944 125.778ZM388.983 126.018V163H379.105V126.018H388.983ZM378.49 116.379C378.49 114.943 378.992 113.758 379.994 112.824C380.997 111.89 382.341 111.423 384.027 111.423C385.691 111.423 387.024 111.89 388.026 112.824C389.052 113.758 389.564 114.943 389.564 116.379C389.564 117.814 389.052 118.999 388.026 119.934C387.024 120.868 385.691 121.335 384.027 121.335C382.341 121.335 380.997 120.868 379.994 119.934C378.992 118.999 378.49 117.814 378.49 116.379ZM395.546 144.885V144.167C395.546 141.455 395.933 138.96 396.708 136.682C397.483 134.38 398.611 132.386 400.092 130.7C401.573 129.014 403.396 127.704 405.561 126.77C407.725 125.812 410.209 125.334 413.012 125.334C415.814 125.334 418.31 125.812 420.497 126.77C422.685 127.704 424.519 129.014 426 130.7C427.504 132.386 428.643 134.38 429.418 136.682C430.193 138.96 430.58 141.455 430.58 144.167V144.885C430.58 147.574 430.193 150.069 429.418 152.37C428.643 154.649 427.504 156.643 426 158.352C424.519 160.038 422.696 161.348 420.531 162.282C418.367 163.216 415.883 163.684 413.08 163.684C410.277 163.684 407.782 163.216 405.595 162.282C403.43 161.348 401.596 160.038 400.092 158.352C398.611 156.643 397.483 154.649 396.708 152.37C395.933 150.069 395.546 147.574 395.546 144.885ZM405.39 144.167V144.885C405.39 146.434 405.526 147.881 405.8 149.226C406.073 150.57 406.506 151.755 407.099 152.78C407.714 153.783 408.511 154.569 409.491 155.139C410.471 155.708 411.667 155.993 413.08 155.993C414.447 155.993 415.621 155.708 416.601 155.139C417.58 154.569 418.367 153.783 418.959 152.78C419.551 151.755 419.984 150.57 420.258 149.226C420.554 147.881 420.702 146.434 420.702 144.885V144.167C420.702 142.663 420.554 141.25 420.258 139.929C419.984 138.584 419.54 137.399 418.925 136.374C418.332 135.326 417.546 134.506 416.566 133.913C415.587 133.321 414.402 133.024 413.012 133.024C411.622 133.024 410.437 133.321 409.457 133.913C408.5 134.506 407.714 135.326 407.099 136.374C406.506 137.399 406.073 138.584 405.8 139.929C405.526 141.25 405.39 142.663 405.39 144.167Z" fill="white"/>
<rect x="66" y="111" width="8.53755" height="139" rx="4.26877" fill="white"/>
</svg>
